<?xml version="1.0" standalone="no"?>
<!DOCTYPE svg PUBLIC "-//W3C//DTD SVG 20010904//EN"
 "http://www.w3.org/TR/2001/REC-SVG-20010904/DTD/svg10.dtd">
<svg version="1.0" xmlns="http://www.w3.org/2000/svg"
 width="392.000000pt" height="365.000000pt" viewBox="0 0 392.000000 365.000000"
 preserveAspectRatio="xMidYMid meet">

<g transform="translate(0.000000,365.000000) scale(0.100000,-0.100000)"
fill="#ffff" stroke="none">
<path d="M1863 3360 c-128 -18 -325 -86 -447 -154 -151 -84 -320 -236 -418
-376 -288 -409 -311 -958 -58 -1381 110 -182 282 -354 468 -466 l34 -20 -69
-7 c-343 -34 -637 -101 -788 -179 -148 -77 -210 -156 -210 -267 2 -232 286
-364 947 -440 148 -17 237 -20 618 -20 245 0 531 5 636 10 401 20 725 86 916
187 242 127 276 327 82 474 -135 102 -434 188 -778 224 -77 9 -141 17 -144 20
-2 2 17 19 44 37 151 105 297 246 393 381 146 207 235 529 216 787 -14 208
-84 430 -183 584 -146 227 -322 381 -566 496 -159 75 -306 110 -486 115 -80 2
-173 0 -207 -5z m407 -130 c256 -43 523 -217 709 -464 65 -86 155 -269 182
-372 27 -100 37 -372 20 -495 -24 -161 -117 -373 -221 -502 -78 -98 -211 -221
-308 -288 -95 -64 -162 -122 -361 -309 -225 -211 -249 -232 -269 -221 -9 5
-109 95 -221 200 -239 225 -280 260 -386 332 -93 63 -258 218 -322 304 -59 79
-125 211 -171 344 l-37 106 0 235 0 235 33 94 c70 202 174 364 325 509 171
162 377 270 582 302 73 11 356 5 445 -10z m422 -2386 c459 -46 720 -118 837
-231 49 -47 51 -52 51 -101 0 -47 -4 -57 -39 -95 -93 -100 -364 -187 -716
-229 -157 -19 -1411 -18 -1580 0 -164 18 -306 47 -444 88 -141 43 -218 83
-271 140 -33 36 -40 51 -40 84 0 129 138 212 473 285 157 34 406 65 520 65 92
0 94 0 130 -34 20 -18 37 -41 37 -50 0 -19 -18 -23 -140 -31 -329 -21 -592
-103 -631 -196 -25 -63 38 -125 177 -173 214 -74 770 -119 805 -65 14 22 6 43
-22 56 -14 7 -102 19 -195 28 -312 29 -587 77 -630 110 -18 14 -18 16 -1 29
51 40 516 116 707 116 l76 0 54 -56 c75 -77 134 -114 182 -114 50 0 82 17 160
86 79 70 111 84 191 84 202 0 687 -93 687 -132 0 -28 -226 -74 -530 -108 -321
-36 -318 -36 -332 -66 -30 -65 62 -77 370 -45 300 31 460 70 555 134 119 81
65 175 -135 237 -99 30 -192 47 -398 71 -102 12 -187 23 -189 25 -2 1 16 26
40 53 29 33 52 51 66 51 13 0 91 -7 175 -16z"/>
<path d="M1855 3136 c-402 -78 -730 -382 -842 -780 -14 -48 -18 -102 -18 -261
0 -234 12 -289 96 -461 105 -215 265 -375 484 -483 334 -166 722 -140 1043 69
79 51 226 195 279 275 141 210 192 399 180 669 -6 146 -25 226 -81 349 -140
309 -395 521 -728 607 -107 27 -313 35 -413 16z m435 -136 c163 -48 353 -171
456 -296 135 -163 201 -318 224 -524 30 -266 -72 -544 -274 -746 -276 -276
-660 -352 -1023 -204 -243 100 -452 326 -534 580 -27 81 -32 115 -36 231 -7
174 7 273 56 393 120 292 348 490 666 577 100 27 356 21 465 -11z"/>
<path d="M1680 2811 c-64 -4 -92 -11 -115 -27 -63 -46 -69 -58 -80 -176 l-10
-111 -51 -16 c-95 -30 -98 -35 -102 -164 -5 -145 3 -176 54 -204 21 -13 48
-23 59 -23 42 0 45 -14 45 -237 l0 -212 40 -38 c22 -21 57 -71 78 -112 28 -57
45 -79 72 -93 48 -25 135 -24 178 2 36 22 72 75 72 106 0 27 23 34 115 34 92
0 115 -7 115 -34 0 -31 36 -84 72 -106 43 -26 130 -27 178 -2 27 14 44 36 72
93 21 41 56 91 78 112 l40 38 0 212 c0 223 3 237 45 237 11 0 38 10 59 23 51
28 59 59 54 204 -4 129 -7 134 -102 164 l-51 16 -10 104 c-10 108 -22 136 -77
185 -22 21 -33 22 -383 26 -198 3 -398 3 -445 -1z m786 -135 c8 -12 14 -44 14
-78 l0 -58 -445 0 -445 0 0 58 c0 61 12 87 45 95 11 3 199 4 418 4 382 -2 399
-3 413 -21z m14 -386 l0 -130 -445 0 -445 0 0 130 0 130 445 0 445 0 0 -130z
m-1002 -3 l3 -78 -28 3 c-27 3 -28 5 -31 67 -4 78 1 93 30 89 21 -3 23 -9 26
-81z m1167 3 c0 -74 0 -75 -27 -78 l-28 -3 0 74 c0 80 4 89 35 85 18 -3 20
-10 20 -78z m-165 -410 c0 -180 -7 -207 -54 -215 -17 -3 -205 -5 -418 -3 -301
2 -390 6 -400 16 -9 9 -14 61 -16 187 l-3 175 445 0 446 0 0 -160z m-674 -351
c3 -6 -1 -18 -9 -27 -12 -12 -23 -13 -48 -6 -37 11 -49 30 -22 37 34 9 72 7
79 -4z m532 5 c31 -9 23 -27 -17 -38 -25 -7 -36 -6 -48 6 -29 30 6 47 65 32z"/>
<path d="M1721 1846 c-26 -28 -22 -60 11 -77 49 -26 100 40 63 81 -24 27 -47
25 -74 -4z"/>
<path d="M2274 1845 c-36 -55 35 -106 79 -57 22 25 21 34 -6 60 -31 29 -53 28
-73 -3z"/>
<path d="M1997 363 c-14 -13 -6 -70 11 -86 24 -22 35 -21 55 1 23 25 22 69 -2
82 -22 11 -54 13 -64 3z"/>
</g>
</svg>
